<?xml version="1.0" standalone="no"?>
<!DOCTYPE svg PUBLIC "-//W3C//DTD SVG 20010904//EN"
 "http://www.w3.org/TR/2001/REC-SVG-20010904/DTD/svg10.dtd">
<svg version="1.0" xmlns="http://www.w3.org/2000/svg"
 width="280.000000pt" height="250.000000pt" viewBox="0 0 280.000000 250.000000"
 preserveAspectRatio="xMidYMid meet">
<metadata>
Created by potrace 1.15, written by Peter Selinger 2001-2017
</metadata>
<g transform="translate(0.000000,250.000000) scale(0.100000,-0.100000)"
fill="#000000" stroke="none">
<path d="M863 1822 c-14 -9 -53 -119 -45 -127 3 -3 74 -5 157 -5 111 0 155 -3
163 -13 6 -7 36 -91 67 -187 31 -96 65 -200 75 -230 10 -30 44 -135 75 -233
31 -98 63 -184 70 -191 12 -11 46 -14 103 -7 21 2 14 31 -47 217 -32 99 -91
280 -131 404 -103 321 -118 362 -132 371 -17 11 -339 11 -355 1z"/>
<path d="M1611 1816 c-17 -20 -42 -106 -35 -117 3 -5 71 -9 152 -9 81 0 152
-4 159 -8 6 -4 18 -28 26 -52 18 -55 66 -204 147 -460 62 -195 108 -337 156
-482 14 -43 23 -82 19 -88 -9 -15 -220 -13 -232 3 -6 6 -29 73 -53 147 -24 74
-58 180 -76 235 -18 55 -58 180 -89 277 -34 108 -62 179 -71 182 -23 9 -87 7
-103 -3 -11 -7 -9 -23 12 -87 14 -44 53 -167 87 -274 33 -107 65 -206 70 -220
5 -14 32 -99 60 -190 28 -91 56 -176 63 -190 l13 -25 244 -3 c134 -1 248 2
252 6 5 5 5 19 -1 33 -9 21 -43 127 -188 584 -19 61 -45 142 -58 180 -13 39
-55 171 -94 295 -39 124 -77 236 -84 250 l-13 25 -175 3 c-146 2 -178 0 -188
-12z"/>
<path d="M743 1444 c-7 -3 -42 -98 -79 -212 -36 -114 -92 -288 -125 -387 -32
-99 -72 -222 -89 -274 -16 -51 -30 -100 -30 -107 0 -20 442 -21 458 -1 17 19
44 106 37 117 -4 6 -71 10 -161 10 -140 0 -154 2 -154 18 0 9 20 78 44 152 37
114 81 253 185 579 l17 54 17 -24 c9 -13 17 -28 17 -33 0 -9 139 -442 239
-741 l46 -140 194 0 194 0 20 58 c10 32 16 61 12 65 -4 4 -79 9 -168 12 -160
5 -161 5 -174 30 -6 14 -44 126 -84 250 -124 389 -179 553 -191 567 -7 9 -40
13 -112 12 -55 0 -106 -3 -113 -5z"/>
</g>
</svg>
