<svg width="580" height="400" xmlns="http://www.w3.org/2000/svg">
 <!-- Created with Method Draw - http://github.com/duopixel/Method-Draw/ -->

 <g>
  <title>background</title>
  <rect fill="#fff" id="canvas_background" height="402" width="582" y="-1" x="-1"/>
  <g display="none" overflow="visible" y="0" x="0" height="100%" width="100%" id="canvasGrid">
   <rect fill="url(#gridpattern)" stroke-width="0" y="0" x="0" height="100%" width="100%"/>
  </g>
 </g>
 <g>
  <title>Layer 1</title>
  <ellipse stroke="#000" ry="41.000001" rx="41.499999" id="svg_9" cy="148.499999" cx="289.999999" stroke-width="1.5" fill="#fff"/>
  <metadata transform="matrix(0.2267573709660917,0,0,0.2267573709660917,0,0) ">Created by potrace 1.15, written by Peter Selinger 2001-2017</metadata>
  <g id="svg_4" fill="#000000" transform="matrix(0.03169542873962522,0,0,-0.03281413090538019,-124.35283694885948,-14.3853088409046) ">
   <path stroke="null" id="svg_5" d="m12549.685516,-4204.625244c-14,-9 -53,-119 -45,-127c3,-3 74,-5 157,-5c111,0 155,-3 163,-13c6,-7 36,-91 67,-187c31,-96 65,-200 75,-230c10,-30 44,-135 75,-233c31,-98 63,-184 70,-191c12,-11 46,-14 103,-7c21,2 14,31 -47,217c-32,99 -91,280 -131,404c-103,321 -118,362 -132,371c-17,11 -339,11 -355,1z"/>
   <path stroke="null" id="svg_6" d="m13297.685516,-4210.625244c-17,-20 -42,-106 -35,-117c3,-5 71,-9 152,-9c81,0 152,-4 159,-8c6,-4 18,-28 26,-52c18,-55 66,-204 147,-460c62,-195 108,-337 156,-482c14,-43 23,-82 19,-88c-9,-15 -220,-13 -232,3c-6,6 -29,73 -53,147c-24,74 -58,180 -76,235c-18,55 -58,180 -89,277c-34,108 -62,179 -71,182c-23,9 -87,7 -103,-3c-11,-7 -9,-23 12,-87c14,-44 53,-167 87,-274c33,-107 65,-206 70,-220c5,-14 32,-99 60,-190c28,-91 56,-176 63,-190l13,-25l244,-3c134,-1 248,2 252,6c5,5 5,19 -1,33c-9,21 -43,127 -188,584c-19,61 -45,142 -58,180c-13,39 -55,171 -94,295c-39,124 -77,236 -84,250l-13,25l-175,3c-146,2 -178,0 -188,-12z"/>
   <path stroke="null" id="svg_7" d="m12429.685516,-4582.625244c-7,-3 -42,-98 -79,-212c-36,-114 -92,-288 -125,-387c-32,-99 -72,-222 -89,-274c-16,-51 -30,-100 -30,-107c0,-20 442,-21 458,-1c17,19 44,106 37,117c-4,6 -71,10 -161,10c-140,0 -154,2 -154,18c0,9 20,78 44,152c37,114 81,253 185,579l17,54l17,-24c9,-13 17,-28 17,-33c0,-9 139,-442 239,-741l46,-140l194,0l194,0l20,58c10,32 16,61 12,65c-4,4 -79,9 -168,12c-160,5 -161,5 -174,30c-6,14 -44,126 -84,250c-124,389 -179,553 -191,567c-7,9 -40,13 -112,12c-55,0 -106,-3 -113,-5z"/>
  </g>
 </g>
</svg>